<svg width="58" height="30" viewBox="0 0 58 30" fill="none" xmlns="http://www.w3.org/2000/svg">
<g filter="url(#filter0_d_1352_136)">
<line x1="16" y1="15" x2="54" y2="15" stroke="#0066FF" stroke-opacity="0.7" stroke-width="4" shape-rendering="crispEdges"/>
</g>
<g filter="url(#filter1_d_1352_136)">
<path d="M4 11C4 9.89543 4.89543 9 6 9H14C15.1046 9 16 9.89543 16 11V19C16 20.1046 15.1046 21 14 21H6C4.89543 21 4 20.1046 4 19V11Z" fill="#0066FF" fill-opacity="0.7" shape-rendering="crispEdges"/>
</g>
<path d="M54 2C54 0.89543 54.8954 0 56 0H58V30H56C54.8954 30 54 29.1046 54 28V2Z" fill="#0066FF" fill-opacity="0.7"/>
<defs>
<filter id="filter0_d_1352_136" x="12" y="13" width="46" height="12" filterUnits="userSpaceOnUse" color-interpolation-filters="sRGB">
<feFlood flood-opacity="0" result="BackgroundImageFix"/>
<feColorMatrix in="SourceAlpha" type="matrix" values="0 0 0 0 0 0 0 0 0 0 0 0 0 0 0 0 0 0 127 0" result="hardAlpha"/>
<feOffset dy="4"/>
<feGaussianBlur stdDeviation="2"/>
<feComposite in2="hardAlpha" operator="out"/>
<feColorMatrix type="matrix" values="0 0 0 0 0 0 0 0 0 0 0 0 0 0 0 0 0 0 0.25 0"/>
<feBlend mode="normal" in2="BackgroundImageFix" result="effect1_dropShadow_1352_136"/>
<feBlend mode="normal" in="SourceGraphic" in2="effect1_dropShadow_1352_136" result="shape"/>
</filter>
<filter id="filter1_d_1352_136" x="0" y="9" width="20" height="20" filterUnits="userSpaceOnUse" color-interpolation-filters="sRGB">
<feFlood flood-opacity="0" result="BackgroundImageFix"/>
<feColorMatrix in="SourceAlpha" type="matrix" values="0 0 0 0 0 0 0 0 0 0 0 0 0 0 0 0 0 0 127 0" result="hardAlpha"/>
<feOffset dy="4"/>
<feGaussianBlur stdDeviation="2"/>
<feComposite in2="hardAlpha" operator="out"/>
<feColorMatrix type="matrix" values="0 0 0 0 0 0 0 0 0 0 0 0 0 0 0 0 0 0 0.25 0"/>
<feBlend mode="normal" in2="BackgroundImageFix" result="effect1_dropShadow_1352_136"/>
<feBlend mode="normal" in="SourceGraphic" in2="effect1_dropShadow_1352_136" result="shape"/>
</filter>
</defs>
</svg>
